<mxfile host="app.diagrams.net" modified="2021-05-07T14:30:33.254Z" agent="5.0 (X11; CrOS aarch64 13816.64.0) AppleWebKit/537.36 (KHTML, like Gecko) Chrome/90.0.4430.100 Safari/537.36" etag="HDqhsKpfzMGH4yXL_QHV" version="14.6.11" type="github">
  <diagram id="4cwx4pwp12pZUkZbKhSr" name="Page-1">
    <mxGraphModel dx="582" dy="415" grid="1" gridSize="10" guides="1" tooltips="1" connect="1" arrows="1" fold="1" page="1" pageScale="1" pageWidth="850" pageHeight="1100" math="0" shadow="0">
      <root>
        <mxCell id="0" />
        <mxCell id="1" parent="0" />
        <mxCell id="TuPoeoWpN1tek3kIQ5zs-8" style="edgeStyle=orthogonalEdgeStyle;rounded=0;orthogonalLoop=1;jettySize=auto;html=1;exitX=0.5;exitY=1;exitDx=0;exitDy=0;" edge="1" parent="1" source="TuPoeoWpN1tek3kIQ5zs-1" target="TuPoeoWpN1tek3kIQ5zs-3">
          <mxGeometry relative="1" as="geometry" />
        </mxCell>
        <mxCell id="TuPoeoWpN1tek3kIQ5zs-9" style="edgeStyle=orthogonalEdgeStyle;rounded=0;orthogonalLoop=1;jettySize=auto;html=1;exitX=0.5;exitY=1;exitDx=0;exitDy=0;entryX=0.5;entryY=0;entryDx=0;entryDy=0;" edge="1" parent="1" source="TuPoeoWpN1tek3kIQ5zs-1" target="TuPoeoWpN1tek3kIQ5zs-2">
          <mxGeometry relative="1" as="geometry" />
        </mxCell>
        <mxCell id="TuPoeoWpN1tek3kIQ5zs-10" style="edgeStyle=orthogonalEdgeStyle;rounded=0;orthogonalLoop=1;jettySize=auto;html=1;exitX=0.5;exitY=1;exitDx=0;exitDy=0;entryX=0.5;entryY=0;entryDx=0;entryDy=0;" edge="1" parent="1" source="TuPoeoWpN1tek3kIQ5zs-1" target="TuPoeoWpN1tek3kIQ5zs-4">
          <mxGeometry relative="1" as="geometry" />
        </mxCell>
        <mxCell id="TuPoeoWpN1tek3kIQ5zs-1" value="Month Program" style="rounded=0;whiteSpace=wrap;html=1;" vertex="1" parent="1">
          <mxGeometry x="240" y="180" width="120" height="60" as="geometry" />
        </mxCell>
        <mxCell id="TuPoeoWpN1tek3kIQ5zs-11" style="edgeStyle=orthogonalEdgeStyle;rounded=0;orthogonalLoop=1;jettySize=auto;html=1;exitX=0.5;exitY=1;exitDx=0;exitDy=0;entryX=0.5;entryY=0;entryDx=0;entryDy=0;" edge="1" parent="1" source="TuPoeoWpN1tek3kIQ5zs-2" target="TuPoeoWpN1tek3kIQ5zs-5">
          <mxGeometry relative="1" as="geometry" />
        </mxCell>
        <mxCell id="TuPoeoWpN1tek3kIQ5zs-2" value="Input" style="rounded=0;whiteSpace=wrap;html=1;" vertex="1" parent="1">
          <mxGeometry x="80" y="290" width="120" height="60" as="geometry" />
        </mxCell>
        <mxCell id="TuPoeoWpN1tek3kIQ5zs-12" style="edgeStyle=orthogonalEdgeStyle;rounded=0;orthogonalLoop=1;jettySize=auto;html=1;exitX=0.5;exitY=1;exitDx=0;exitDy=0;entryX=0.5;entryY=0;entryDx=0;entryDy=0;" edge="1" parent="1" source="TuPoeoWpN1tek3kIQ5zs-3" target="TuPoeoWpN1tek3kIQ5zs-6">
          <mxGeometry relative="1" as="geometry" />
        </mxCell>
        <mxCell id="TuPoeoWpN1tek3kIQ5zs-3" value="Process" style="rounded=0;whiteSpace=wrap;html=1;" vertex="1" parent="1">
          <mxGeometry x="240" y="290" width="120" height="60" as="geometry" />
        </mxCell>
        <mxCell id="TuPoeoWpN1tek3kIQ5zs-13" style="edgeStyle=orthogonalEdgeStyle;rounded=0;orthogonalLoop=1;jettySize=auto;html=1;exitX=0.5;exitY=1;exitDx=0;exitDy=0;entryX=0.5;entryY=0;entryDx=0;entryDy=0;" edge="1" parent="1" source="TuPoeoWpN1tek3kIQ5zs-4" target="TuPoeoWpN1tek3kIQ5zs-7">
          <mxGeometry relative="1" as="geometry" />
        </mxCell>
        <mxCell id="TuPoeoWpN1tek3kIQ5zs-4" value="Output" style="rounded=0;whiteSpace=wrap;html=1;" vertex="1" parent="1">
          <mxGeometry x="410" y="290" width="120" height="60" as="geometry" />
        </mxCell>
        <mxCell id="TuPoeoWpN1tek3kIQ5zs-5" value="Get Number" style="rounded=0;whiteSpace=wrap;html=1;" vertex="1" parent="1">
          <mxGeometry x="80" y="400" width="120" height="60" as="geometry" />
        </mxCell>
        <mxCell id="TuPoeoWpN1tek3kIQ5zs-6" value="Check the number to determine the month" style="rounded=0;whiteSpace=wrap;html=1;" vertex="1" parent="1">
          <mxGeometry x="240" y="400" width="120" height="60" as="geometry" />
        </mxCell>
        <mxCell id="TuPoeoWpN1tek3kIQ5zs-7" value="Show the month" style="rounded=0;whiteSpace=wrap;html=1;" vertex="1" parent="1">
          <mxGeometry x="410" y="400" width="120" height="60" as="geometry" />
        </mxCell>
      </root>
    </mxGraphModel>
  </diagram>
</mxfile>
